<svg width="3101" height="943" viewBox="0 0 3101 943" fill="none" xmlns="http://www.w3.org/2000/svg">
<path d="M134.832 252.466C211.167 252.466 268.923 199.485 268.923 126.35H248.923C248.923 187.195 201.409 232.466 134.832 232.466V252.466ZM268.923 126.35C268.923 53.2149 211.167 0.233985 134.832 0.233985V20.234C201.409 20.234 248.923 65.5051 248.923 126.35H268.923ZM134.832 0.233985C58.4965 0.233985 0.740899 53.2149 0.740899 126.35H20.7409C20.7409 65.5051 68.2552 20.234 134.832 20.234V0.233985ZM0.740899 126.35C0.740899 199.485 58.4966 252.466 134.832 252.466V232.466C68.2552 232.466 20.7409 187.195 20.7409 126.35H0.740899ZM134.832 180.15C106.779 180.15 84.5409 159.667 84.5409 126.35H64.5409C64.5409 170.231 95.257 200.15 134.832 200.15V180.15ZM84.5409 126.35C84.5409 93.0328 106.779 72.55 134.832 72.55V52.55C95.257 52.55 64.5409 82.4692 64.5409 126.35H84.5409ZM134.832 72.55C162.885 72.55 185.123 93.0328 185.123 126.35H205.123C205.123 82.4692 174.407 52.55 134.832 52.55V72.55ZM185.123 126.35C185.123 159.667 162.885 180.15 134.832 180.15V200.15C174.407 200.15 205.123 170.231 205.123 126.35H185.123ZM645.195 238V248H655.223L655.195 237.971L645.195 238ZM644.557 14.7L654.556 14.6714L654.528 4.69998H644.557V14.7ZM592.56 14.7V4.69998H586.869L583.962 9.59263L592.56 14.7ZM516 143.576L507.458 148.777L516.105 162.978L524.597 148.683L516 143.576ZM437.526 14.7L446.067 9.49917L443.144 4.69998H437.526V14.7ZM385.529 14.7V4.69998H375.529V14.7H385.529ZM385.529 238H375.529V248H385.529V238ZM443.587 238V248H453.587V238H443.587ZM443.587 122.203L452.115 116.981L433.587 86.7182V122.203H443.587ZM501.007 215.989L492.478 221.211L495.404 225.989H501.007V215.989ZM529.079 215.989V225.989H534.76L537.668 221.109L529.079 215.989ZM586.499 119.651L596.498 119.624L596.401 83.5048L577.909 114.531L586.499 119.651ZM586.818 238L576.818 238.027L576.844 248H586.818V238ZM655.195 237.971L654.556 14.6714L634.557 14.7286L635.195 238.029L655.195 237.971ZM644.557 4.69998H592.56V24.7H644.557V4.69998ZM583.962 9.59263L507.402 138.469L524.597 148.683L601.157 19.8073L583.962 9.59263ZM524.541 138.375L446.067 9.49917L428.984 19.9008L507.458 148.777L524.541 138.375ZM437.526 4.69998H385.529V24.7H437.526V4.69998ZM375.529 14.7V238H395.529V14.7H375.529ZM385.529 248H443.587V228H385.529V248ZM453.587 238V122.203H433.587V238H453.587ZM435.058 127.425L492.478 221.211L509.535 210.767L452.115 116.981L435.058 127.425ZM501.007 225.989H529.079V205.989H501.007V225.989ZM537.668 221.109L595.089 124.771L577.909 114.531L520.489 210.869L537.668 221.109ZM576.499 119.678L576.818 238.027L596.818 237.973L596.498 119.624L576.499 119.678ZM586.818 248H645.195V228H586.818V248ZM755.215 189.193H745.215V199.193H755.215V189.193ZM755.215 148.361V138.361H745.215V148.361H755.215ZM854.424 148.361V158.361H864.424V148.361H854.424ZM854.424 101.149H864.424V91.149H854.424V101.149ZM755.215 101.149H745.215V111.149H755.215V101.149ZM755.215 63.507V53.507H745.215V63.507H755.215ZM867.822 63.507V73.507H877.822V63.507H867.822ZM867.822 14.7H877.822V4.69998H867.822V14.7ZM692.691 14.7V4.69998H682.691V14.7H692.691ZM692.691 238H682.691V248H692.691V238ZM871.969 238V248H881.969V238H871.969ZM871.969 189.193H881.969V179.193H871.969V189.193ZM765.215 189.193V148.361H745.215V189.193H765.215ZM755.215 158.361H854.424V138.361H755.215V158.361ZM864.424 148.361V101.149H844.424V148.361H864.424ZM854.424 91.149H755.215V111.149H854.424V91.149ZM765.215 101.149V63.507H745.215V101.149H765.215ZM755.215 73.507H867.822V53.507H755.215V73.507ZM877.822 63.507V14.7H857.822V63.507H877.822ZM867.822 4.69998H692.691V24.7H867.822V4.69998ZM682.691 14.7V238H702.691V14.7H682.691ZM692.691 248H871.969V228H692.691V248ZM881.969 238V189.193H861.969V238H881.969ZM871.969 179.193H755.215V199.193H871.969V179.193ZM907.953 14.7V4.69998H897.953V14.7H907.953ZM907.953 238H897.953V248H907.953V238ZM971.115 238V248H981.115V238H971.115ZM971.115 179.623V169.623H961.115V179.623H971.115ZM971.115 129.859H961.115V139.859H971.115V129.859ZM971.115 64.464V54.464H961.115V64.464H971.115ZM1010.03 4.69998H907.953V24.7H1010.03V4.69998ZM897.953 14.7V238H917.953V14.7H897.953ZM907.953 248H971.115V228H907.953V248ZM981.115 238V179.623H961.115V238H981.115ZM971.115 189.623H1010.03V169.623H971.115V189.623ZM1010.03 189.623C1042.13 189.623 1069.41 181.307 1088.87 165.194C1108.53 148.904 1119.24 125.408 1119.24 97.321H1099.24C1099.24 119.955 1090.81 137.61 1076.11 149.791C1061.19 162.148 1038.87 169.623 1010.03 169.623V189.623ZM1119.24 97.321C1119.24 69.0937 1108.55 45.5169 1088.88 29.178C1069.42 13.0157 1042.13 4.69998 1010.03 4.69998V24.7C1038.87 24.7 1061.18 32.1748 1076.1 44.5629C1090.8 56.7746 1099.24 74.5083 1099.24 97.321H1119.24ZM1006.21 119.859H971.115V139.859H1006.21V119.859ZM981.115 129.859V64.464H961.115V129.859H981.115ZM971.115 74.464H1006.21V54.464H971.115V74.464ZM1006.21 74.464C1017.91 74.464 1025.03 77.1913 1029.11 80.6996C1032.95 83.9971 1035.44 89.1452 1035.44 97.321H1055.44C1055.44 84.7618 1051.4 73.4814 1042.15 65.5341C1033.15 57.7977 1020.66 54.464 1006.21 54.464V74.464ZM1035.44 97.321C1035.44 105.291 1032.98 110.363 1029.14 113.64C1025.05 117.132 1017.91 119.859 1006.21 119.859V139.859C1020.66 139.859 1033.14 136.525 1042.13 128.852C1051.37 120.964 1055.44 109.767 1055.44 97.321H1035.44ZM1250.71 252.466C1327.04 252.466 1384.8 199.485 1384.8 126.35H1364.8C1364.8 187.195 1317.29 232.466 1250.71 232.466V252.466ZM1384.8 126.35C1384.8 53.2149 1327.04 0.233985 1250.71 0.233985V20.234C1317.29 20.234 1364.8 65.5051 1364.8 126.35H1384.8ZM1250.71 0.233985C1174.37 0.233985 1116.62 53.2149 1116.62 126.35H1136.62C1136.62 65.5051 1184.13 20.234 1250.71 20.234V0.233985ZM1116.62 126.35C1116.62 199.485 1174.37 252.466 1250.71 252.466V232.466C1184.13 232.466 1136.62 187.195 1136.62 126.35H1116.62ZM1250.71 180.15C1222.66 180.15 1200.42 159.667 1200.42 126.35H1180.42C1180.42 170.231 1211.13 200.15 1250.71 200.15V180.15ZM1200.42 126.35C1200.42 93.0328 1222.66 72.55 1250.71 72.55V52.55C1211.13 52.55 1180.42 82.4692 1180.42 126.35H1200.42ZM1250.71 72.55C1278.76 72.55 1301 93.0328 1301 126.35H1321C1321 82.4692 1290.28 52.55 1250.71 52.55V72.55ZM1301 126.35C1301 159.667 1278.76 180.15 1250.71 180.15V200.15C1290.28 200.15 1321 170.231 1321 126.35H1301ZM1408.57 14.7V4.69998H1398.57V14.7H1408.57ZM1408.57 238H1398.57V248H1408.57V238ZM1470.78 238V248H1480.78V238H1470.78ZM1470.78 64.783V54.783H1460.78V64.783H1470.78ZM1555.63 64.783H1565.63V54.783H1555.63V64.783ZM1555.63 238H1545.63V248H1555.63V238ZM1618.15 238V248H1628.15V238H1618.15ZM1618.15 14.7H1628.15V4.69998H1618.15V14.7ZM1398.57 14.7V238H1418.57V14.7H1398.57ZM1408.57 248H1470.78V228H1408.57V248ZM1480.78 238V64.783H1460.78V238H1480.78ZM1470.78 74.783H1555.63V54.783H1470.78V74.783ZM1545.63 64.783V238H1565.63V64.783H1545.63ZM1555.63 248H1618.15V228H1555.63V248ZM1628.15 238V14.7H1608.15V238H1628.15ZM1618.15 4.69998H1408.57V24.7H1618.15V4.69998ZM1665.89 14.7V4.69998H1655.89V14.7H1665.89ZM1665.89 238H1655.89V248H1665.89V238ZM1729.05 238V248H1739.05V238H1729.05ZM1729.05 179.623V169.623H1719.05V179.623H1729.05ZM1729.05 129.859H1719.05V139.859H1729.05V129.859ZM1729.05 64.464V54.464H1719.05V64.464H1729.05ZM1767.97 4.69998H1665.89V24.7H1767.97V4.69998ZM1655.89 14.7V238H1675.89V14.7H1655.89ZM1665.89 248H1729.05V228H1665.89V248ZM1739.05 238V179.623H1719.05V238H1739.05ZM1729.05 189.623H1767.97V169.623H1729.05V189.623ZM1767.97 189.623C1800.06 189.623 1827.35 181.307 1846.8 165.194C1866.47 148.904 1877.18 125.408 1877.18 97.321H1857.18C1857.18 119.955 1848.75 137.61 1834.04 149.791C1819.13 162.148 1796.81 169.623 1767.97 169.623V189.623ZM1877.18 97.321C1877.18 69.0937 1866.48 45.5169 1846.81 29.178C1827.35 13.0157 1800.06 4.69998 1767.97 4.69998V24.7C1796.81 24.7 1819.12 32.1748 1834.03 44.5629C1848.73 56.7746 1857.18 74.5083 1857.18 97.321H1877.18ZM1764.14 119.859H1729.05V139.859H1764.14V119.859ZM1739.05 129.859V64.464H1719.05V129.859H1739.05ZM1729.05 74.464H1764.14V54.464H1729.05V74.464ZM1764.14 74.464C1775.84 74.464 1782.97 77.1913 1787.05 80.6996C1790.89 83.9971 1793.38 89.1452 1793.38 97.321H1813.38C1813.38 84.7618 1809.33 73.4814 1800.09 65.5341C1791.09 57.7977 1778.6 54.464 1764.14 54.464V74.464ZM1793.38 97.321C1793.38 105.291 1790.92 110.363 1787.08 113.64C1782.99 117.132 1775.84 119.859 1764.14 119.859V139.859C1778.6 139.859 1791.07 136.525 1800.06 128.852C1809.3 120.964 1813.38 109.767 1813.38 97.321H1793.38ZM1895.79 238H1885.79V248H1895.79V238ZM1955.45 238V248H1960.64L1963.63 243.748L1955.45 238ZM2047.32 107.21H2057.32V75.5766L2039.14 101.462L2047.32 107.21ZM2047.32 238H2037.32V248H2047.32V238ZM2109.52 238V248H2119.52V238H2109.52ZM2109.52 14.7H2119.52V4.69998H2109.52V14.7ZM2050.19 14.7V4.69998H2045L2042.01 8.94801L2050.19 14.7ZM1958 145.809H1948V177.416L1966.18 151.561L1958 145.809ZM1958 14.7H1968V4.69998H1958V14.7ZM1895.79 14.7V4.69998H1885.79V14.7H1895.79ZM1895.79 248H1955.45V228H1895.79V248ZM1963.63 243.748L2055.5 112.958L2039.14 101.462L1947.26 232.252L1963.63 243.748ZM2037.32 107.21V238H2057.32V107.21H2037.32ZM2047.32 248H2109.52V228H2047.32V248ZM2119.52 238V14.7H2099.52V238H2119.52ZM2109.52 4.69998H2050.19V24.7H2109.52V4.69998ZM2042.01 8.94801L1949.82 140.057L1966.18 151.561L2058.37 20.452L2042.01 8.94801ZM1968 145.809V14.7H1948V145.809H1968ZM1958 4.69998H1895.79V24.7H1958V4.69998ZM1885.79 14.7V238H1905.79V14.7H1885.79ZM2190.01 172.605L2198.23 178.299L2205.1 168.382L2194.08 163.471L2190.01 172.605ZM2144.71 238L2136.49 232.306L2125.62 248H2144.71V238ZM2211.07 238V248H2216.48L2219.44 243.47L2211.07 238ZM2247.75 181.856V171.856H2242.34L2239.38 176.386L2247.75 181.856ZM2282.2 181.856H2292.2V171.856H2282.2V181.856ZM2282.2 238H2272.2V248H2282.2V238ZM2344.41 238V248H2354.41V238H2344.41ZM2344.41 14.7H2354.41V4.69998H2344.41V14.7ZM2282.2 64.464H2292.2V54.464H2282.2V64.464ZM2282.2 133.049V143.049H2292.2V133.049H2282.2ZM2243.92 4.69998C2211.64 4.69998 2184.16 13.1928 2164.57 29.753C2144.79 46.4796 2134.08 70.6055 2134.08 99.554H2154.08C2154.08 75.8675 2162.66 57.5664 2177.49 45.0247C2192.52 32.3167 2214.96 24.7 2243.92 24.7V4.69998ZM2134.08 99.554C2134.08 138.128 2152.86 166.995 2185.94 181.739L2194.08 163.471C2168.47 152.057 2154.08 130.522 2154.08 99.554H2134.08ZM2181.79 166.911L2136.49 232.306L2152.93 243.694L2198.23 178.299L2181.79 166.911ZM2144.71 248H2211.07V228H2144.71V248ZM2219.44 243.47L2256.12 187.326L2239.38 176.386L2202.69 232.53L2219.44 243.47ZM2247.75 191.856H2282.2V171.856H2247.75V191.856ZM2272.2 181.856V238H2292.2V181.856H2272.2ZM2282.2 248H2344.41V228H2282.2V248ZM2354.41 238V14.7H2334.41V238H2354.41ZM2344.41 4.69998H2243.92V24.7H2344.41V4.69998ZM2245.2 74.464H2282.2V54.464H2245.2V74.464ZM2272.2 64.464V133.049H2292.2V64.464H2272.2ZM2282.2 123.049H2244.56V143.049H2282.2V123.049ZM2244.56 123.049C2234.17 123.049 2227.82 120.422 2224.1 116.918C2220.48 113.505 2217.88 107.868 2217.88 98.597H2197.88C2197.88 111.656 2201.65 123.245 2210.39 131.476C2219.03 139.615 2231.02 143.049 2244.56 143.049V123.049ZM2217.88 98.597C2217.88 89.1372 2220.49 83.6805 2224.06 80.4301C2227.8 77.0254 2234.3 74.464 2245.2 74.464V54.464C2231.53 54.464 2219.38 57.6446 2210.59 65.6441C2201.64 73.798 2197.88 85.4078 2197.88 98.597H2217.88ZM2572.28 14.7H2582.28V4.69998H2572.28V14.7ZM2373.22 14.7V4.69998H2363.22V14.7H2373.22ZM2373.22 64.783H2363.22V74.783H2373.22V64.783ZM2441.81 64.783H2451.81V54.783H2441.81V64.783ZM2441.81 238H2431.81V248H2441.81V238ZM2504.01 238V248H2514.01V238H2504.01ZM2504.01 64.783V54.783H2494.01V64.783H2504.01ZM2572.28 64.783V74.783H2582.28V64.783H2572.28ZM2572.28 4.69998H2373.22V24.7H2572.28V4.69998ZM2363.22 14.7V64.783H2383.22V14.7H2363.22ZM2373.22 74.783H2441.81V54.783H2373.22V74.783ZM2431.81 64.783V238H2451.81V64.783H2431.81ZM2441.81 248H2504.01V228H2441.81V248ZM2514.01 238V64.783H2494.01V238H2514.01ZM2504.01 74.783H2572.28V54.783H2504.01V74.783ZM2582.28 64.783V14.7H2562.28V64.783H2582.28ZM2601.39 238H2591.39V248H2601.39V238ZM2661.05 238V248H2666.24L2669.23 243.748L2661.05 238ZM2752.92 107.21H2762.92V75.5766L2744.74 101.462L2752.92 107.21ZM2752.92 238H2742.92V248H2752.92V238ZM2815.12 238V248H2825.12V238H2815.12ZM2815.12 14.7H2825.12V4.69998H2815.12V14.7ZM2755.79 14.7V4.69998H2750.6L2747.61 8.94801L2755.79 14.7ZM2663.6 145.809H2653.6V177.416L2671.78 151.561L2663.6 145.809ZM2663.6 14.7H2673.6V4.69998H2663.6V14.7ZM2601.39 14.7V4.69998H2591.39V14.7H2601.39ZM2601.39 248H2661.05V228H2601.39V248ZM2669.23 243.748L2761.1 112.958L2744.74 101.462L2652.86 232.252L2669.23 243.748ZM2742.92 107.21V238H2762.92V107.21H2742.92ZM2752.92 248H2815.12V228H2752.92V248ZM2825.12 238V14.7H2805.12V238H2825.12ZM2815.12 4.69998H2755.79V24.7H2815.12V4.69998ZM2747.61 8.94801L2655.42 140.057L2671.78 151.561L2763.97 20.452L2747.61 8.94801ZM2673.6 145.809V14.7H2653.6V145.809H2673.6ZM2663.6 4.69998H2601.39V24.7H2663.6V4.69998ZM2591.39 14.7V238H2611.39V14.7H2591.39ZM2863.07 238H2853.07V248H2863.07V238ZM2922.73 238V248H2927.92L2930.91 243.748L2922.73 238ZM3014.6 107.21H3024.6V75.5766L3006.42 101.462L3014.6 107.21ZM3014.6 238H3004.6V248H3014.6V238ZM3076.8 238V248H3086.8V238H3076.8ZM3076.8 14.7H3086.8V4.69998H3076.8V14.7ZM3017.47 14.7V4.69998H3012.28L3009.29 8.94801L3017.47 14.7ZM2925.28 145.809H2915.28V177.416L2933.46 151.561L2925.28 145.809ZM2925.28 14.7H2935.28V4.69998H2925.28V14.7ZM2863.07 14.7V4.69998H2853.07V14.7H2863.07ZM2863.07 248H2922.73V228H2863.07V248ZM2930.91 243.748L3022.78 112.958L3006.42 101.462L2914.54 232.252L2930.91 243.748ZM3004.6 107.21V238H3024.6V107.21H3004.6ZM3014.6 248H3076.8V228H3014.6V248ZM3086.8 238V14.7H3066.8V238H3086.8ZM3076.8 4.69998H3017.47V24.7H3076.8V4.69998ZM3009.29 8.94801L2917.1 140.057L2933.46 151.561L3025.65 20.452L3009.29 8.94801ZM2935.28 145.809V14.7H2915.28V145.809H2935.28ZM2925.28 4.69998H2863.07V24.7H2925.28V4.69998ZM2853.07 14.7V238H2873.07V14.7H2853.07Z" fill="white"/>
<path d="M134.832 482.466C211.167 482.466 268.923 429.485 268.923 356.35H248.923C248.923 417.195 201.409 462.466 134.832 462.466V482.466ZM268.923 356.35C268.923 283.215 211.167 230.234 134.832 230.234V250.234C201.409 250.234 248.923 295.505 248.923 356.35H268.923ZM134.832 230.234C58.4965 230.234 0.740899 283.215 0.740899 356.35H20.7409C20.7409 295.505 68.2552 250.234 134.832 250.234V230.234ZM0.740899 356.35C0.740899 429.485 58.4966 482.466 134.832 482.466V462.466C68.2552 462.466 20.7409 417.195 20.7409 356.35H0.740899ZM134.832 410.15C106.779 410.15 84.5409 389.667 84.5409 356.35H64.5409C64.5409 400.231 95.257 430.15 134.832 430.15V410.15ZM84.5409 356.35C84.5409 323.033 106.779 302.55 134.832 302.55V282.55C95.257 282.55 64.5409 312.469 64.5409 356.35H84.5409ZM134.832 302.55C162.885 302.55 185.123 323.033 185.123 356.35H205.123C205.123 312.469 174.407 282.55 134.832 282.55V302.55ZM185.123 356.35C185.123 389.667 162.885 410.15 134.832 410.15V430.15C174.407 430.15 205.123 400.231 205.123 356.35H185.123ZM645.195 468V478H655.223L655.195 467.971L645.195 468ZM644.557 244.7L654.556 244.671L654.528 234.7H644.557V244.7ZM592.56 244.7V234.7H586.869L583.962 239.593L592.56 244.7ZM516 373.576L507.458 378.777L516.105 392.978L524.597 378.683L516 373.576ZM437.526 244.7L446.067 239.499L443.144 234.7H437.526V244.7ZM385.529 244.7V234.7H375.529V244.7H385.529ZM385.529 468H375.529V478H385.529V468ZM443.587 468V478H453.587V468H443.587ZM443.587 352.203L452.115 346.981L433.587 316.718V352.203H443.587ZM501.007 445.989L492.478 451.211L495.404 455.989H501.007V445.989ZM529.079 445.989V455.989H534.76L537.668 451.109L529.079 445.989ZM586.499 349.651L596.498 349.624L596.401 313.505L577.909 344.531L586.499 349.651ZM586.818 468L576.818 468.027L576.844 478H586.818V468ZM655.195 467.971L654.556 244.671L634.557 244.729L635.195 468.029L655.195 467.971ZM644.557 234.7H592.56V254.7H644.557V234.7ZM583.962 239.593L507.402 368.469L524.597 378.683L601.157 249.807L583.962 239.593ZM524.541 368.375L446.067 239.499L428.984 249.901L507.458 378.777L524.541 368.375ZM437.526 234.7H385.529V254.7H437.526V234.7ZM375.529 244.7V468H395.529V244.7H375.529ZM385.529 478H443.587V458H385.529V478ZM453.587 468V352.203H433.587V468H453.587ZM435.058 357.425L492.478 451.211L509.535 440.767L452.115 346.981L435.058 357.425ZM501.007 455.989H529.079V435.989H501.007V455.989ZM537.668 451.109L595.089 354.771L577.909 344.531L520.489 440.869L537.668 451.109ZM576.499 349.678L576.818 468.027L596.818 467.973L596.498 349.624L576.499 349.678ZM586.818 478H645.195V458H586.818V478ZM755.215 419.193H745.215V429.193H755.215V419.193ZM755.215 378.361V368.361H745.215V378.361H755.215ZM854.424 378.361V388.361H864.424V378.361H854.424ZM854.424 331.149H864.424V321.149H854.424V331.149ZM755.215 331.149H745.215V341.149H755.215V331.149ZM755.215 293.507V283.507H745.215V293.507H755.215ZM867.822 293.507V303.507H877.822V293.507H867.822ZM867.822 244.7H877.822V234.7H867.822V244.7ZM692.691 244.7V234.7H682.691V244.7H692.691ZM692.691 468H682.691V478H692.691V468ZM871.969 468V478H881.969V468H871.969ZM871.969 419.193H881.969V409.193H871.969V419.193ZM765.215 419.193V378.361H745.215V419.193H765.215ZM755.215 388.361H854.424V368.361H755.215V388.361ZM864.424 378.361V331.149H844.424V378.361H864.424ZM854.424 321.149H755.215V341.149H854.424V321.149ZM765.215 331.149V293.507H745.215V331.149H765.215ZM755.215 303.507H867.822V283.507H755.215V303.507ZM877.822 293.507V244.7H857.822V293.507H877.822ZM867.822 234.7H692.691V254.7H867.822V234.7ZM682.691 244.7V468H702.691V244.7H682.691ZM692.691 478H871.969V458H692.691V478ZM881.969 468V419.193H861.969V468H881.969ZM871.969 409.193H755.215V429.193H871.969V409.193ZM907.953 244.7V234.7H897.953V244.7H907.953ZM907.953 468H897.953V478H907.953V468ZM971.115 468V478H981.115V468H971.115ZM971.115 409.623V399.623H961.115V409.623H971.115ZM971.115 359.859H961.115V369.859H971.115V359.859ZM971.115 294.464V284.464H961.115V294.464H971.115ZM1010.03 234.7H907.953V254.7H1010.03V234.7ZM897.953 244.7V468H917.953V244.7H897.953ZM907.953 478H971.115V458H907.953V478ZM981.115 468V409.623H961.115V468H981.115ZM971.115 419.623H1010.03V399.623H971.115V419.623ZM1010.03 419.623C1042.13 419.623 1069.41 411.307 1088.87 395.194C1108.53 378.904 1119.24 355.408 1119.24 327.321H1099.24C1099.24 349.955 1090.81 367.61 1076.11 379.791C1061.19 392.148 1038.87 399.623 1010.03 399.623V419.623ZM1119.24 327.321C1119.24 299.094 1108.55 275.517 1088.88 259.178C1069.42 243.016 1042.13 234.7 1010.03 234.7V254.7C1038.87 254.7 1061.18 262.175 1076.1 274.563C1090.8 286.775 1099.24 304.508 1099.24 327.321H1119.24ZM1006.21 349.859H971.115V369.859H1006.21V349.859ZM981.115 359.859V294.464H961.115V359.859H981.115ZM971.115 304.464H1006.21V284.464H971.115V304.464ZM1006.21 304.464C1017.91 304.464 1025.03 307.191 1029.11 310.7C1032.95 313.997 1035.44 319.145 1035.44 327.321H1055.44C1055.44 314.762 1051.4 303.481 1042.15 295.534C1033.15 287.798 1020.66 284.464 1006.21 284.464V304.464ZM1035.44 327.321C1035.44 335.291 1032.98 340.363 1029.14 343.64C1025.05 347.132 1017.91 349.859 1006.21 349.859V369.859C1020.66 369.859 1033.14 366.525 1042.13 358.852C1051.37 350.964 1055.44 339.767 1055.44 327.321H1035.44ZM1250.71 482.466C1327.04 482.466 1384.8 429.485 1384.8 356.35H1364.8C1364.8 417.195 1317.29 462.466 1250.71 462.466V482.466ZM1384.8 356.35C1384.8 283.215 1327.04 230.234 1250.71 230.234V250.234C1317.29 250.234 1364.8 295.505 1364.8 356.35H1384.8ZM1250.71 230.234C1174.37 230.234 1116.62 283.215 1116.62 356.35H1136.62C1136.62 295.505 1184.13 250.234 1250.71 250.234V230.234ZM1116.62 356.35C1116.62 429.485 1174.37 482.466 1250.71 482.466V462.466C1184.13 462.466 1136.62 417.195 1136.62 356.35H1116.62ZM1250.71 410.15C1222.66 410.15 1200.42 389.667 1200.42 356.35H1180.42C1180.42 400.231 1211.13 430.15 1250.71 430.15V410.15ZM1200.42 356.35C1200.42 323.033 1222.66 302.55 1250.71 302.55V282.55C1211.13 282.55 1180.42 312.469 1180.42 356.35H1200.42ZM1250.71 302.55C1278.76 302.55 1301 323.033 1301 356.35H1321C1321 312.469 1290.28 282.55 1250.71 282.55V302.55ZM1301 356.35C1301 389.667 1278.76 410.15 1250.71 410.15V430.15C1290.28 430.15 1321 400.231 1321 356.35H1301ZM1408.57 244.7V234.7H1398.57V244.7H1408.57ZM1408.57 468H1398.57V478H1408.57V468ZM1470.78 468V478H1480.78V468H1470.78ZM1470.78 294.783V284.783H1460.78V294.783H1470.78ZM1555.63 294.783H1565.63V284.783H1555.63V294.783ZM1555.63 468H1545.63V478H1555.63V468ZM1618.15 468V478H1628.15V468H1618.15ZM1618.15 244.7H1628.15V234.7H1618.15V244.7ZM1398.57 244.7V468H1418.57V244.7H1398.57ZM1408.57 478H1470.78V458H1408.57V478ZM1480.78 468V294.783H1460.78V468H1480.78ZM1470.78 304.783H1555.63V284.783H1470.78V304.783ZM1545.63 294.783V468H1565.63V294.783H1545.63ZM1555.63 478H1618.15V458H1555.63V478ZM1628.15 468V244.7H1608.15V468H1628.15ZM1618.15 234.7H1408.57V254.7H1618.15V234.7ZM1665.89 244.7V234.7H1655.89V244.7H1665.89ZM1665.89 468H1655.89V478H1665.89V468ZM1729.05 468V478H1739.05V468H1729.05ZM1729.05 409.623V399.623H1719.05V409.623H1729.05ZM1729.05 359.859H1719.05V369.859H1729.05V359.859ZM1729.05 294.464V284.464H1719.05V294.464H1729.05ZM1767.97 234.7H1665.89V254.7H1767.97V234.7ZM1655.89 244.7V468H1675.89V244.7H1655.89ZM1665.89 478H1729.05V458H1665.89V478ZM1739.05 468V409.623H1719.05V468H1739.05ZM1729.05 419.623H1767.97V399.623H1729.05V419.623ZM1767.97 419.623C1800.06 419.623 1827.35 411.307 1846.8 395.194C1866.47 378.904 1877.18 355.408 1877.18 327.321H1857.18C1857.18 349.955 1848.75 367.61 1834.04 379.791C1819.13 392.148 1796.81 399.623 1767.97 399.623V419.623ZM1877.18 327.321C1877.18 299.094 1866.48 275.517 1846.81 259.178C1827.35 243.016 1800.06 234.7 1767.97 234.7V254.7C1796.81 254.7 1819.12 262.175 1834.03 274.563C1848.73 286.775 1857.18 304.508 1857.18 327.321H1877.18ZM1764.14 349.859H1729.05V369.859H1764.14V349.859ZM1739.05 359.859V294.464H1719.05V359.859H1739.05ZM1729.05 304.464H1764.14V284.464H1729.05V304.464ZM1764.14 304.464C1775.84 304.464 1782.97 307.191 1787.05 310.7C1790.89 313.997 1793.38 319.145 1793.38 327.321H1813.38C1813.38 314.762 1809.33 303.481 1800.09 295.534C1791.09 287.798 1778.6 284.464 1764.14 284.464V304.464ZM1793.38 327.321C1793.38 335.291 1790.92 340.363 1787.08 343.64C1782.99 347.132 1775.84 349.859 1764.14 349.859V369.859C1778.6 369.859 1791.07 366.525 1800.06 358.852C1809.3 350.964 1813.38 339.767 1813.38 327.321H1793.38ZM1895.79 468H1885.79V478H1895.79V468ZM1955.45 468V478H1960.64L1963.63 473.748L1955.45 468ZM2047.32 337.21H2057.32V305.577L2039.14 331.462L2047.32 337.21ZM2047.32 468H2037.32V478H2047.32V468ZM2109.52 468V478H2119.52V468H2109.52ZM2109.52 244.7H2119.52V234.7H2109.52V244.7ZM2050.19 244.7V234.7H2045L2042.01 238.948L2050.19 244.7ZM1958 375.809H1948V407.416L1966.18 381.561L1958 375.809ZM1958 244.7H1968V234.7H1958V244.7ZM1895.79 244.7V234.7H1885.79V244.7H1895.79ZM1895.79 478H1955.45V458H1895.79V478ZM1963.63 473.748L2055.5 342.958L2039.14 331.462L1947.26 462.252L1963.63 473.748ZM2037.32 337.21V468H2057.32V337.21H2037.32ZM2047.32 478H2109.52V458H2047.32V478ZM2119.52 468V244.7H2099.52V468H2119.52ZM2109.52 234.7H2050.19V254.7H2109.52V234.7ZM2042.01 238.948L1949.82 370.057L1966.18 381.561L2058.37 250.452L2042.01 238.948ZM1968 375.809V244.7H1948V375.809H1968ZM1958 234.7H1895.79V254.7H1958V234.7ZM1885.79 244.7V468H1905.79V244.7H1885.79ZM2190.01 402.605L2198.23 408.299L2205.1 398.382L2194.08 393.471L2190.01 402.605ZM2144.71 468L2136.49 462.306L2125.62 478H2144.71V468ZM2211.07 468V478H2216.48L2219.44 473.47L2211.07 468ZM2247.75 411.856V401.856H2242.34L2239.38 406.386L2247.75 411.856ZM2282.2 411.856H2292.2V401.856H2282.2V411.856ZM2282.2 468H2272.2V478H2282.2V468ZM2344.41 468V478H2354.41V468H2344.41ZM2344.41 244.7H2354.41V234.7H2344.41V244.7ZM2282.2 294.464H2292.2V284.464H2282.2V294.464ZM2282.2 363.049V373.049H2292.2V363.049H2282.2ZM2243.92 234.7C2211.64 234.7 2184.16 243.193 2164.57 259.753C2144.79 276.48 2134.08 300.605 2134.08 329.554H2154.08C2154.08 305.868 2162.66 287.566 2177.49 275.025C2192.52 262.317 2214.96 254.7 2243.92 254.7V234.7ZM2134.08 329.554C2134.08 368.128 2152.86 396.995 2185.94 411.739L2194.08 393.471C2168.47 382.057 2154.08 360.522 2154.08 329.554H2134.08ZM2181.79 396.911L2136.49 462.306L2152.93 473.694L2198.23 408.299L2181.79 396.911ZM2144.71 478H2211.07V458H2144.71V478ZM2219.44 473.47L2256.12 417.326L2239.38 406.386L2202.69 462.53L2219.44 473.47ZM2247.75 421.856H2282.2V401.856H2247.75V421.856ZM2272.2 411.856V468H2292.2V411.856H2272.2ZM2282.2 478H2344.41V458H2282.2V478ZM2354.41 468V244.7H2334.41V468H2354.41ZM2344.41 234.7H2243.92V254.7H2344.41V234.7ZM2245.2 304.464H2282.2V284.464H2245.2V304.464ZM2272.2 294.464V363.049H2292.2V294.464H2272.2ZM2282.2 353.049H2244.56V373.049H2282.2V353.049ZM2244.56 353.049C2234.17 353.049 2227.82 350.422 2224.1 346.918C2220.48 343.505 2217.88 337.868 2217.88 328.597H2197.88C2197.88 341.656 2201.65 353.245 2210.39 361.476C2219.03 369.615 2231.02 373.049 2244.56 373.049V353.049ZM2217.88 328.597C2217.88 319.137 2220.49 313.68 2224.06 310.43C2227.8 307.025 2234.3 304.464 2245.2 304.464V284.464C2231.53 284.464 2219.38 287.645 2210.59 295.644C2201.64 303.798 2197.88 315.408 2197.88 328.597H2217.88ZM2572.28 244.7H2582.28V234.7H2572.28V244.7ZM2373.22 244.7V234.7H2363.22V244.7H2373.22ZM2373.22 294.783H2363.22V304.783H2373.22V294.783ZM2441.81 294.783H2451.81V284.783H2441.81V294.783ZM2441.81 468H2431.81V478H2441.81V468ZM2504.01 468V478H2514.01V468H2504.01ZM2504.01 294.783V284.783H2494.01V294.783H2504.01ZM2572.28 294.783V304.783H2582.28V294.783H2572.28ZM2572.28 234.7H2373.22V254.7H2572.28V234.7ZM2363.22 244.7V294.783H2383.22V244.7H2363.22ZM2373.22 304.783H2441.81V284.783H2373.22V304.783ZM2431.81 294.783V468H2451.81V294.783H2431.81ZM2441.81 478H2504.01V458H2441.81V478ZM2514.01 468V294.783H2494.01V468H2514.01ZM2504.01 304.783H2572.28V284.783H2504.01V304.783ZM2582.28 294.783V244.7H2562.28V294.783H2582.28ZM2601.39 468H2591.39V478H2601.39V468ZM2661.05 468V478H2666.24L2669.23 473.748L2661.05 468ZM2752.92 337.21H2762.92V305.577L2744.74 331.462L2752.92 337.21ZM2752.92 468H2742.92V478H2752.92V468ZM2815.12 468V478H2825.12V468H2815.12ZM2815.12 244.7H2825.12V234.7H2815.12V244.7ZM2755.79 244.7V234.7H2750.6L2747.61 238.948L2755.79 244.7ZM2663.6 375.809H2653.6V407.416L2671.78 381.561L2663.6 375.809ZM2663.6 244.7H2673.6V234.7H2663.6V244.7ZM2601.39 244.7V234.7H2591.39V244.7H2601.39ZM2601.39 478H2661.05V458H2601.39V478ZM2669.23 473.748L2761.1 342.958L2744.74 331.462L2652.86 462.252L2669.23 473.748ZM2742.92 337.21V468H2762.92V337.21H2742.92ZM2752.92 478H2815.12V458H2752.92V478ZM2825.12 468V244.7H2805.12V468H2825.12ZM2815.12 234.7H2755.79V254.7H2815.12V234.7ZM2747.61 238.948L2655.42 370.057L2671.78 381.561L2763.97 250.452L2747.61 238.948ZM2673.6 375.809V244.7H2653.6V375.809H2673.6ZM2663.6 234.7H2601.39V254.7H2663.6V234.7ZM2591.39 244.7V468H2611.39V244.7H2591.39ZM2863.07 468H2853.07V478H2863.07V468ZM2922.73 468V478H2927.92L2930.91 473.748L2922.73 468ZM3014.6 337.21H3024.6V305.577L3006.42 331.462L3014.6 337.21ZM3014.6 468H3004.6V478H3014.6V468ZM3076.8 468V478H3086.8V468H3076.8ZM3076.8 244.7H3086.8V234.7H3076.8V244.7ZM3017.47 244.7V234.7H3012.28L3009.29 238.948L3017.47 244.7ZM2925.28 375.809H2915.28V407.416L2933.46 381.561L2925.28 375.809ZM2925.28 244.7H2935.28V234.7H2925.28V244.7ZM2863.07 244.7V234.7H2853.07V244.7H2863.07ZM2863.07 478H2922.73V458H2863.07V478ZM2930.91 473.748L3022.78 342.958L3006.42 331.462L2914.54 462.252L2930.91 473.748ZM3004.6 337.21V468H3024.6V337.21H3004.6ZM3014.6 478H3076.8V458H3014.6V478ZM3086.8 468V244.7H3066.8V468H3086.8ZM3076.8 234.7H3017.47V254.7H3076.8V234.7ZM3009.29 238.948L2917.1 370.057L2933.46 381.561L3025.65 250.452L3009.29 238.948ZM2935.28 375.809V244.7H2915.28V375.809H2935.28ZM2925.28 234.7H2863.07V254.7H2925.28V234.7ZM2853.07 244.7V468H2873.07V244.7H2853.07Z" fill="#C1C1C1"/>
<path d="M134.832 712.466C211.167 712.466 268.923 659.485 268.923 586.35H248.923C248.923 647.195 201.409 692.466 134.832 692.466V712.466ZM268.923 586.35C268.923 513.215 211.167 460.234 134.832 460.234V480.234C201.409 480.234 248.923 525.505 248.923 586.35H268.923ZM134.832 460.234C58.4965 460.234 0.740899 513.215 0.740899 586.35H20.7409C20.7409 525.505 68.2552 480.234 134.832 480.234V460.234ZM0.740899 586.35C0.740899 659.485 58.4966 712.466 134.832 712.466V692.466C68.2552 692.466 20.7409 647.195 20.7409 586.35H0.740899ZM134.832 640.15C106.779 640.15 84.5409 619.667 84.5409 586.35H64.5409C64.5409 630.231 95.257 660.15 134.832 660.15V640.15ZM84.5409 586.35C84.5409 553.033 106.779 532.55 134.832 532.55V512.55C95.257 512.55 64.5409 542.469 64.5409 586.35H84.5409ZM134.832 532.55C162.885 532.55 185.123 553.033 185.123 586.35H205.123C205.123 542.469 174.407 512.55 134.832 512.55V532.55ZM185.123 586.35C185.123 619.667 162.885 640.15 134.832 640.15V660.15C174.407 660.15 205.123 630.231 205.123 586.35H185.123ZM645.195 698V708H655.223L655.195 697.971L645.195 698ZM644.557 474.7L654.556 474.671L654.528 464.7H644.557V474.7ZM592.56 474.7V464.7H586.869L583.962 469.593L592.56 474.7ZM516 603.576L507.458 608.777L516.105 622.978L524.597 608.683L516 603.576ZM437.526 474.7L446.067 469.499L443.144 464.7H437.526V474.7ZM385.529 474.7V464.7H375.529V474.7H385.529ZM385.529 698H375.529V708H385.529V698ZM443.587 698V708H453.587V698H443.587ZM443.587 582.203L452.115 576.981L433.587 546.718V582.203H443.587ZM501.007 675.989L492.478 681.211L495.404 685.989H501.007V675.989ZM529.079 675.989V685.989H534.76L537.668 681.109L529.079 675.989ZM586.499 579.651L596.498 579.624L596.401 543.505L577.909 574.531L586.499 579.651ZM586.818 698L576.818 698.027L576.844 708H586.818V698ZM655.195 697.971L654.556 474.671L634.557 474.729L635.195 698.029L655.195 697.971ZM644.557 464.7H592.56V484.7H644.557V464.7ZM583.962 469.593L507.402 598.469L524.597 608.683L601.157 479.807L583.962 469.593ZM524.541 598.375L446.067 469.499L428.984 479.901L507.458 608.777L524.541 598.375ZM437.526 464.7H385.529V484.7H437.526V464.7ZM375.529 474.7V698H395.529V474.7H375.529ZM385.529 708H443.587V688H385.529V708ZM453.587 698V582.203H433.587V698H453.587ZM435.058 587.425L492.478 681.211L509.535 670.767L452.115 576.981L435.058 587.425ZM501.007 685.989H529.079V665.989H501.007V685.989ZM537.668 681.109L595.089 584.771L577.909 574.531L520.489 670.869L537.668 681.109ZM576.499 579.678L576.818 698.027L596.818 697.973L596.498 579.624L576.499 579.678ZM586.818 708H645.195V688H586.818V708ZM755.215 649.193H745.215V659.193H755.215V649.193ZM755.215 608.361V598.361H745.215V608.361H755.215ZM854.424 608.361V618.361H864.424V608.361H854.424ZM854.424 561.149H864.424V551.149H854.424V561.149ZM755.215 561.149H745.215V571.149H755.215V561.149ZM755.215 523.507V513.507H745.215V523.507H755.215ZM867.822 523.507V533.507H877.822V523.507H867.822ZM867.822 474.7H877.822V464.7H867.822V474.7ZM692.691 474.7V464.7H682.691V474.7H692.691ZM692.691 698H682.691V708H692.691V698ZM871.969 698V708H881.969V698H871.969ZM871.969 649.193H881.969V639.193H871.969V649.193ZM765.215 649.193V608.361H745.215V649.193H765.215ZM755.215 618.361H854.424V598.361H755.215V618.361ZM864.424 608.361V561.149H844.424V608.361H864.424ZM854.424 551.149H755.215V571.149H854.424V551.149ZM765.215 561.149V523.507H745.215V561.149H765.215ZM755.215 533.507H867.822V513.507H755.215V533.507ZM877.822 523.507V474.7H857.822V523.507H877.822ZM867.822 464.7H692.691V484.7H867.822V464.7ZM682.691 474.7V698H702.691V474.7H682.691ZM692.691 708H871.969V688H692.691V708ZM881.969 698V649.193H861.969V698H881.969ZM871.969 639.193H755.215V659.193H871.969V639.193ZM907.953 474.7V464.7H897.953V474.7H907.953ZM907.953 698H897.953V708H907.953V698ZM971.115 698V708H981.115V698H971.115ZM971.115 639.623V629.623H961.115V639.623H971.115ZM971.115 589.859H961.115V599.859H971.115V589.859ZM971.115 524.464V514.464H961.115V524.464H971.115ZM1010.03 464.7H907.953V484.7H1010.03V464.7ZM897.953 474.7V698H917.953V474.7H897.953ZM907.953 708H971.115V688H907.953V708ZM981.115 698V639.623H961.115V698H981.115ZM971.115 649.623H1010.03V629.623H971.115V649.623ZM1010.03 649.623C1042.13 649.623 1069.41 641.307 1088.87 625.194C1108.53 608.904 1119.24 585.408 1119.24 557.321H1099.24C1099.24 579.955 1090.81 597.61 1076.11 609.791C1061.19 622.148 1038.87 629.623 1010.03 629.623V649.623ZM1119.24 557.321C1119.24 529.094 1108.55 505.517 1088.88 489.178C1069.42 473.016 1042.13 464.7 1010.03 464.7V484.7C1038.87 484.7 1061.18 492.175 1076.1 504.563C1090.8 516.775 1099.24 534.508 1099.24 557.321H1119.24ZM1006.21 579.859H971.115V599.859H1006.21V579.859ZM981.115 589.859V524.464H961.115V589.859H981.115ZM971.115 534.464H1006.21V514.464H971.115V534.464ZM1006.21 534.464C1017.91 534.464 1025.03 537.191 1029.11 540.7C1032.95 543.997 1035.44 549.145 1035.44 557.321H1055.44C1055.44 544.762 1051.4 533.481 1042.15 525.534C1033.15 517.798 1020.66 514.464 1006.21 514.464V534.464ZM1035.44 557.321C1035.44 565.291 1032.98 570.363 1029.14 573.64C1025.05 577.132 1017.91 579.859 1006.21 579.859V599.859C1020.66 599.859 1033.14 596.525 1042.13 588.852C1051.37 580.964 1055.44 569.767 1055.44 557.321H1035.44ZM1250.71 712.466C1327.04 712.466 1384.8 659.485 1384.8 586.35H1364.8C1364.8 647.195 1317.29 692.466 1250.71 692.466V712.466ZM1384.8 586.35C1384.8 513.215 1327.04 460.234 1250.71 460.234V480.234C1317.29 480.234 1364.8 525.505 1364.8 586.35H1384.8ZM1250.71 460.234C1174.37 460.234 1116.62 513.215 1116.62 586.35H1136.62C1136.62 525.505 1184.13 480.234 1250.71 480.234V460.234ZM1116.62 586.35C1116.62 659.485 1174.37 712.466 1250.71 712.466V692.466C1184.13 692.466 1136.62 647.195 1136.62 586.35H1116.62ZM1250.71 640.15C1222.66 640.15 1200.42 619.667 1200.42 586.35H1180.42C1180.42 630.231 1211.13 660.15 1250.71 660.15V640.15ZM1200.42 586.35C1200.42 553.033 1222.66 532.55 1250.71 532.55V512.55C1211.13 512.55 1180.42 542.469 1180.42 586.35H1200.42ZM1250.71 532.55C1278.76 532.55 1301 553.033 1301 586.35H1321C1321 542.469 1290.28 512.55 1250.71 512.55V532.55ZM1301 586.35C1301 619.667 1278.76 640.15 1250.71 640.15V660.15C1290.28 660.15 1321 630.231 1321 586.35H1301ZM1408.57 474.7V464.7H1398.57V474.7H1408.57ZM1408.57 698H1398.57V708H1408.57V698ZM1470.78 698V708H1480.78V698H1470.78ZM1470.78 524.783V514.783H1460.78V524.783H1470.78ZM1555.63 524.783H1565.63V514.783H1555.63V524.783ZM1555.63 698H1545.63V708H1555.63V698ZM1618.15 698V708H1628.15V698H1618.15ZM1618.15 474.7H1628.15V464.7H1618.15V474.7ZM1398.57 474.7V698H1418.57V474.7H1398.57ZM1408.57 708H1470.78V688H1408.57V708ZM1480.78 698V524.783H1460.78V698H1480.78ZM1470.78 534.783H1555.63V514.783H1470.78V534.783ZM1545.63 524.783V698H1565.63V524.783H1545.63ZM1555.63 708H1618.15V688H1555.63V708ZM1628.15 698V474.7H1608.15V698H1628.15ZM1618.15 464.7H1408.57V484.7H1618.15V464.7ZM1665.89 474.7V464.7H1655.89V474.7H1665.89ZM1665.89 698H1655.89V708H1665.89V698ZM1729.05 698V708H1739.05V698H1729.05ZM1729.05 639.623V629.623H1719.05V639.623H1729.05ZM1729.05 589.859H1719.05V599.859H1729.05V589.859ZM1729.05 524.464V514.464H1719.05V524.464H1729.05ZM1767.97 464.7H1665.89V484.7H1767.97V464.7ZM1655.89 474.7V698H1675.89V474.7H1655.89ZM1665.89 708H1729.05V688H1665.89V708ZM1739.05 698V639.623H1719.05V698H1739.05ZM1729.05 649.623H1767.97V629.623H1729.05V649.623ZM1767.97 649.623C1800.06 649.623 1827.35 641.307 1846.8 625.194C1866.47 608.904 1877.18 585.408 1877.18 557.321H1857.18C1857.18 579.955 1848.75 597.61 1834.04 609.791C1819.13 622.148 1796.81 629.623 1767.97 629.623V649.623ZM1877.18 557.321C1877.18 529.094 1866.48 505.517 1846.81 489.178C1827.35 473.016 1800.06 464.7 1767.97 464.7V484.7C1796.81 484.7 1819.12 492.175 1834.03 504.563C1848.73 516.775 1857.18 534.508 1857.18 557.321H1877.18ZM1764.14 579.859H1729.05V599.859H1764.14V579.859ZM1739.05 589.859V524.464H1719.05V589.859H1739.05ZM1729.05 534.464H1764.14V514.464H1729.05V534.464ZM1764.14 534.464C1775.84 534.464 1782.97 537.191 1787.05 540.7C1790.89 543.997 1793.38 549.145 1793.38 557.321H1813.38C1813.38 544.762 1809.33 533.481 1800.09 525.534C1791.09 517.798 1778.6 514.464 1764.14 514.464V534.464ZM1793.38 557.321C1793.38 565.291 1790.92 570.363 1787.08 573.64C1782.99 577.132 1775.84 579.859 1764.14 579.859V599.859C1778.6 599.859 1791.07 596.525 1800.06 588.852C1809.3 580.964 1813.38 569.767 1813.38 557.321H1793.38ZM1895.79 698H1885.79V708H1895.79V698ZM1955.45 698V708H1960.64L1963.63 703.748L1955.45 698ZM2047.32 567.21H2057.32V535.577L2039.14 561.462L2047.32 567.21ZM2047.32 698H2037.32V708H2047.32V698ZM2109.52 698V708H2119.52V698H2109.52ZM2109.52 474.7H2119.52V464.7H2109.52V474.7ZM2050.19 474.7V464.7H2045L2042.01 468.948L2050.19 474.7ZM1958 605.809H1948V637.416L1966.18 611.561L1958 605.809ZM1958 474.7H1968V464.7H1958V474.7ZM1895.79 474.7V464.7H1885.79V474.7H1895.79ZM1895.79 708H1955.45V688H1895.79V708ZM1963.63 703.748L2055.5 572.958L2039.14 561.462L1947.26 692.252L1963.63 703.748ZM2037.32 567.21V698H2057.32V567.21H2037.32ZM2047.32 708H2109.52V688H2047.32V708ZM2119.52 698V474.7H2099.52V698H2119.52ZM2109.52 464.7H2050.19V484.7H2109.52V464.7ZM2042.01 468.948L1949.82 600.057L1966.18 611.561L2058.37 480.452L2042.01 468.948ZM1968 605.809V474.7H1948V605.809H1968ZM1958 464.7H1895.79V484.7H1958V464.7ZM1885.79 474.7V698H1905.79V474.7H1885.79ZM2190.01 632.605L2198.23 638.299L2205.1 628.382L2194.08 623.471L2190.01 632.605ZM2144.71 698L2136.49 692.306L2125.62 708H2144.71V698ZM2211.07 698V708H2216.48L2219.44 703.47L2211.07 698ZM2247.75 641.856V631.856H2242.34L2239.38 636.386L2247.75 641.856ZM2282.2 641.856H2292.2V631.856H2282.2V641.856ZM2282.2 698H2272.2V708H2282.2V698ZM2344.41 698V708H2354.41V698H2344.41ZM2344.41 474.7H2354.41V464.7H2344.41V474.7ZM2282.2 524.464H2292.2V514.464H2282.2V524.464ZM2282.2 593.049V603.049H2292.2V593.049H2282.2ZM2243.92 464.7C2211.64 464.7 2184.16 473.193 2164.57 489.753C2144.79 506.48 2134.08 530.605 2134.08 559.554H2154.08C2154.08 535.868 2162.66 517.566 2177.49 505.025C2192.52 492.317 2214.96 484.7 2243.92 484.7V464.7ZM2134.08 559.554C2134.08 598.128 2152.86 626.995 2185.94 641.739L2194.08 623.471C2168.47 612.057 2154.08 590.522 2154.08 559.554H2134.08ZM2181.79 626.911L2136.49 692.306L2152.93 703.694L2198.23 638.299L2181.79 626.911ZM2144.71 708H2211.07V688H2144.71V708ZM2219.44 703.47L2256.12 647.326L2239.38 636.386L2202.69 692.53L2219.44 703.47ZM2247.75 651.856H2282.2V631.856H2247.75V651.856ZM2272.2 641.856V698H2292.2V641.856H2272.2ZM2282.2 708H2344.41V688H2282.2V708ZM2354.41 698V474.7H2334.41V698H2354.41ZM2344.41 464.7H2243.92V484.7H2344.41V464.7ZM2245.2 534.464H2282.2V514.464H2245.2V534.464ZM2272.2 524.464V593.049H2292.2V524.464H2272.2ZM2282.2 583.049H2244.56V603.049H2282.2V583.049ZM2244.56 583.049C2234.17 583.049 2227.82 580.422 2224.1 576.918C2220.48 573.505 2217.88 567.868 2217.88 558.597H2197.88C2197.88 571.656 2201.65 583.245 2210.39 591.476C2219.03 599.615 2231.02 603.049 2244.56 603.049V583.049ZM2217.88 558.597C2217.88 549.137 2220.49 543.68 2224.06 540.43C2227.8 537.025 2234.3 534.464 2245.2 534.464V514.464C2231.53 514.464 2219.38 517.645 2210.59 525.644C2201.64 533.798 2197.88 545.408 2197.88 558.597H2217.88ZM2572.28 474.7H2582.28V464.7H2572.28V474.7ZM2373.22 474.7V464.7H2363.22V474.7H2373.22ZM2373.22 524.783H2363.22V534.783H2373.22V524.783ZM2441.81 524.783H2451.81V514.783H2441.81V524.783ZM2441.81 698H2431.81V708H2441.81V698ZM2504.01 698V708H2514.01V698H2504.01ZM2504.01 524.783V514.783H2494.01V524.783H2504.01ZM2572.28 524.783V534.783H2582.28V524.783H2572.28ZM2572.28 464.7H2373.22V484.7H2572.28V464.7ZM2363.22 474.7V524.783H2383.22V474.7H2363.22ZM2373.22 534.783H2441.81V514.783H2373.22V534.783ZM2431.81 524.783V698H2451.81V524.783H2431.81ZM2441.81 708H2504.01V688H2441.81V708ZM2514.01 698V524.783H2494.01V698H2514.01ZM2504.01 534.783H2572.28V514.783H2504.01V534.783ZM2582.28 524.783V474.7H2562.28V524.783H2582.28ZM2601.39 698H2591.39V708H2601.39V698ZM2661.05 698V708H2666.24L2669.23 703.748L2661.05 698ZM2752.92 567.21H2762.92V535.577L2744.74 561.462L2752.92 567.21ZM2752.92 698H2742.92V708H2752.92V698ZM2815.12 698V708H2825.12V698H2815.12ZM2815.12 474.7H2825.12V464.7H2815.12V474.7ZM2755.79 474.7V464.7H2750.6L2747.61 468.948L2755.79 474.7ZM2663.6 605.809H2653.6V637.416L2671.78 611.561L2663.6 605.809ZM2663.6 474.7H2673.6V464.7H2663.6V474.7ZM2601.39 474.7V464.7H2591.39V474.7H2601.39ZM2601.39 708H2661.05V688H2601.39V708ZM2669.23 703.748L2761.1 572.958L2744.74 561.462L2652.86 692.252L2669.23 703.748ZM2742.92 567.21V698H2762.92V567.21H2742.92ZM2752.92 708H2815.12V688H2752.92V708ZM2825.12 698V474.7H2805.12V698H2825.12ZM2815.12 464.7H2755.79V484.7H2815.12V464.7ZM2747.61 468.948L2655.42 600.057L2671.78 611.561L2763.97 480.452L2747.61 468.948ZM2673.6 605.809V474.7H2653.6V605.809H2673.6ZM2663.6 464.7H2601.39V484.7H2663.6V464.7ZM2591.39 474.7V698H2611.39V474.7H2591.39ZM2863.07 698H2853.07V708H2863.07V698ZM2922.73 698V708H2927.92L2930.91 703.748L2922.73 698ZM3014.6 567.21H3024.6V535.577L3006.42 561.462L3014.6 567.21ZM3014.6 698H3004.6V708H3014.6V698ZM3076.8 698V708H3086.8V698H3076.8ZM3076.8 474.7H3086.8V464.7H3076.8V474.7ZM3017.47 474.7V464.7H3012.28L3009.29 468.948L3017.47 474.7ZM2925.28 605.809H2915.28V637.416L2933.46 611.561L2925.28 605.809ZM2925.28 474.7H2935.28V464.7H2925.28V474.7ZM2863.07 474.7V464.7H2853.07V474.7H2863.07ZM2863.07 708H2922.73V688H2863.07V708ZM2930.91 703.748L3022.78 572.958L3006.42 561.462L2914.54 692.252L2930.91 703.748ZM3004.6 567.21V698H3024.6V567.21H3004.6ZM3014.6 708H3076.8V688H3014.6V708ZM3086.8 698V474.7H3066.8V698H3086.8ZM3076.8 464.7H3017.47V484.7H3076.8V464.7ZM3009.29 468.948L2917.1 600.057L2933.46 611.561L3025.65 480.452L3009.29 468.948ZM2935.28 605.809V474.7H2915.28V605.809H2935.28ZM2925.28 464.7H2863.07V484.7H2925.28V464.7ZM2853.07 474.7V698H2873.07V474.7H2853.07Z" fill="#838383"/>
<path d="M134.832 942.466C211.167 942.466 268.923 889.485 268.923 816.35H248.923C248.923 877.195 201.409 922.466 134.832 922.466V942.466ZM268.923 816.35C268.923 743.215 211.167 690.234 134.832 690.234V710.234C201.409 710.234 248.923 755.505 248.923 816.35H268.923ZM134.832 690.234C58.4965 690.234 0.740899 743.215 0.740899 816.35H20.7409C20.7409 755.505 68.2552 710.234 134.832 710.234V690.234ZM0.740899 816.35C0.740899 889.485 58.4966 942.466 134.832 942.466V922.466C68.2552 922.466 20.7409 877.195 20.7409 816.35H0.740899ZM134.832 870.15C106.779 870.15 84.5409 849.667 84.5409 816.35H64.5409C64.5409 860.231 95.257 890.15 134.832 890.15V870.15ZM84.5409 816.35C84.5409 783.033 106.779 762.55 134.832 762.55V742.55C95.257 742.55 64.5409 772.469 64.5409 816.35H84.5409ZM134.832 762.55C162.885 762.55 185.123 783.033 185.123 816.35H205.123C205.123 772.469 174.407 742.55 134.832 742.55V762.55ZM185.123 816.35C185.123 849.667 162.885 870.15 134.832 870.15V890.15C174.407 890.15 205.123 860.231 205.123 816.35H185.123ZM645.195 928V938H655.223L655.195 927.971L645.195 928ZM644.557 704.7L654.556 704.671L654.528 694.7H644.557V704.7ZM592.56 704.7V694.7H586.869L583.962 699.593L592.56 704.7ZM516 833.576L507.458 838.777L516.105 852.978L524.597 838.683L516 833.576ZM437.526 704.7L446.067 699.499L443.144 694.7H437.526V704.7ZM385.529 704.7V694.7H375.529V704.7H385.529ZM385.529 928H375.529V938H385.529V928ZM443.587 928V938H453.587V928H443.587ZM443.587 812.203L452.115 806.981L433.587 776.718V812.203H443.587ZM501.007 905.989L492.478 911.211L495.404 915.989H501.007V905.989ZM529.079 905.989V915.989H534.76L537.668 911.109L529.079 905.989ZM586.499 809.651L596.498 809.624L596.401 773.505L577.909 804.531L586.499 809.651ZM586.818 928L576.818 928.027L576.844 938H586.818V928ZM655.195 927.971L654.556 704.671L634.557 704.729L635.195 928.029L655.195 927.971ZM644.557 694.7H592.56V714.7H644.557V694.7ZM583.962 699.593L507.402 828.469L524.597 838.683L601.157 709.807L583.962 699.593ZM524.541 828.375L446.067 699.499L428.984 709.901L507.458 838.777L524.541 828.375ZM437.526 694.7H385.529V714.7H437.526V694.7ZM375.529 704.7V928H395.529V704.7H375.529ZM385.529 938H443.587V918H385.529V938ZM453.587 928V812.203H433.587V928H453.587ZM435.058 817.425L492.478 911.211L509.535 900.767L452.115 806.981L435.058 817.425ZM501.007 915.989H529.079V895.989H501.007V915.989ZM537.668 911.109L595.089 814.771L577.909 804.531L520.489 900.869L537.668 911.109ZM576.499 809.678L576.818 928.027L596.818 927.973L596.498 809.624L576.499 809.678ZM586.818 938H645.195V918H586.818V938ZM755.215 879.193H745.215V889.193H755.215V879.193ZM755.215 838.361V828.361H745.215V838.361H755.215ZM854.424 838.361V848.361H864.424V838.361H854.424ZM854.424 791.149H864.424V781.149H854.424V791.149ZM755.215 791.149H745.215V801.149H755.215V791.149ZM755.215 753.507V743.507H745.215V753.507H755.215ZM867.822 753.507V763.507H877.822V753.507H867.822ZM867.822 704.7H877.822V694.7H867.822V704.7ZM692.691 704.7V694.7H682.691V704.7H692.691ZM692.691 928H682.691V938H692.691V928ZM871.969 928V938H881.969V928H871.969ZM871.969 879.193H881.969V869.193H871.969V879.193ZM765.215 879.193V838.361H745.215V879.193H765.215ZM755.215 848.361H854.424V828.361H755.215V848.361ZM864.424 838.361V791.149H844.424V838.361H864.424ZM854.424 781.149H755.215V801.149H854.424V781.149ZM765.215 791.149V753.507H745.215V791.149H765.215ZM755.215 763.507H867.822V743.507H755.215V763.507ZM877.822 753.507V704.7H857.822V753.507H877.822ZM867.822 694.7H692.691V714.7H867.822V694.7ZM682.691 704.7V928H702.691V704.7H682.691ZM692.691 938H871.969V918H692.691V938ZM881.969 928V879.193H861.969V928H881.969ZM871.969 869.193H755.215V889.193H871.969V869.193ZM907.953 704.7V694.7H897.953V704.7H907.953ZM907.953 928H897.953V938H907.953V928ZM971.115 928V938H981.115V928H971.115ZM971.115 869.623V859.623H961.115V869.623H971.115ZM971.115 819.859H961.115V829.859H971.115V819.859ZM971.115 754.464V744.464H961.115V754.464H971.115ZM1010.03 694.7H907.953V714.7H1010.03V694.7ZM897.953 704.7V928H917.953V704.7H897.953ZM907.953 938H971.115V918H907.953V938ZM981.115 928V869.623H961.115V928H981.115ZM971.115 879.623H1010.03V859.623H971.115V879.623ZM1010.03 879.623C1042.13 879.623 1069.41 871.307 1088.87 855.194C1108.53 838.904 1119.24 815.408 1119.24 787.321H1099.24C1099.24 809.955 1090.81 827.61 1076.11 839.791C1061.19 852.148 1038.87 859.623 1010.03 859.623V879.623ZM1119.24 787.321C1119.24 759.094 1108.55 735.517 1088.88 719.178C1069.42 703.016 1042.13 694.7 1010.03 694.7V714.7C1038.87 714.7 1061.18 722.175 1076.1 734.563C1090.8 746.775 1099.24 764.508 1099.24 787.321H1119.24ZM1006.21 809.859H971.115V829.859H1006.21V809.859ZM981.115 819.859V754.464H961.115V819.859H981.115ZM971.115 764.464H1006.21V744.464H971.115V764.464ZM1006.21 764.464C1017.91 764.464 1025.03 767.191 1029.11 770.7C1032.95 773.997 1035.44 779.145 1035.44 787.321H1055.44C1055.44 774.762 1051.4 763.481 1042.15 755.534C1033.15 747.798 1020.66 744.464 1006.21 744.464V764.464ZM1035.44 787.321C1035.44 795.291 1032.98 800.363 1029.14 803.64C1025.05 807.132 1017.91 809.859 1006.21 809.859V829.859C1020.66 829.859 1033.14 826.525 1042.13 818.852C1051.37 810.964 1055.44 799.767 1055.44 787.321H1035.44ZM1250.71 942.466C1327.04 942.466 1384.8 889.485 1384.8 816.35H1364.8C1364.8 877.195 1317.29 922.466 1250.71 922.466V942.466ZM1384.8 816.35C1384.8 743.215 1327.04 690.234 1250.71 690.234V710.234C1317.29 710.234 1364.8 755.505 1364.8 816.35H1384.8ZM1250.71 690.234C1174.37 690.234 1116.62 743.215 1116.62 816.35H1136.62C1136.62 755.505 1184.13 710.234 1250.71 710.234V690.234ZM1116.62 816.35C1116.62 889.485 1174.37 942.466 1250.71 942.466V922.466C1184.13 922.466 1136.62 877.195 1136.62 816.35H1116.62ZM1250.71 870.15C1222.66 870.15 1200.42 849.667 1200.42 816.35H1180.42C1180.42 860.231 1211.13 890.15 1250.71 890.15V870.15ZM1200.42 816.35C1200.42 783.033 1222.66 762.55 1250.71 762.55V742.55C1211.13 742.55 1180.42 772.469 1180.42 816.35H1200.42ZM1250.71 762.55C1278.76 762.55 1301 783.033 1301 816.35H1321C1321 772.469 1290.28 742.55 1250.71 742.55V762.55ZM1301 816.35C1301 849.667 1278.76 870.15 1250.71 870.15V890.15C1290.28 890.15 1321 860.231 1321 816.35H1301ZM1408.57 704.7V694.7H1398.57V704.7H1408.57ZM1408.57 928H1398.57V938H1408.57V928ZM1470.78 928V938H1480.78V928H1470.78ZM1470.78 754.783V744.783H1460.78V754.783H1470.78ZM1555.63 754.783H1565.63V744.783H1555.63V754.783ZM1555.63 928H1545.63V938H1555.63V928ZM1618.15 928V938H1628.15V928H1618.15ZM1618.15 704.7H1628.15V694.7H1618.15V704.7ZM1398.57 704.7V928H1418.57V704.7H1398.57ZM1408.57 938H1470.78V918H1408.57V938ZM1480.78 928V754.783H1460.78V928H1480.78ZM1470.78 764.783H1555.63V744.783H1470.78V764.783ZM1545.63 754.783V928H1565.63V754.783H1545.63ZM1555.63 938H1618.15V918H1555.63V938ZM1628.15 928V704.7H1608.15V928H1628.15ZM1618.15 694.7H1408.57V714.7H1618.15V694.7ZM1665.89 704.7V694.7H1655.89V704.7H1665.89ZM1665.89 928H1655.89V938H1665.89V928ZM1729.05 928V938H1739.05V928H1729.05ZM1729.05 869.623V859.623H1719.05V869.623H1729.05ZM1729.05 819.859H1719.05V829.859H1729.05V819.859ZM1729.05 754.464V744.464H1719.05V754.464H1729.05ZM1767.97 694.7H1665.89V714.7H1767.97V694.7ZM1655.89 704.7V928H1675.89V704.7H1655.89ZM1665.89 938H1729.05V918H1665.89V938ZM1739.05 928V869.623H1719.05V928H1739.05ZM1729.05 879.623H1767.97V859.623H1729.05V879.623ZM1767.97 879.623C1800.06 879.623 1827.35 871.307 1846.8 855.194C1866.47 838.904 1877.18 815.408 1877.18 787.321H1857.18C1857.18 809.955 1848.75 827.61 1834.04 839.791C1819.13 852.148 1796.81 859.623 1767.97 859.623V879.623ZM1877.18 787.321C1877.18 759.094 1866.48 735.517 1846.81 719.178C1827.35 703.016 1800.06 694.7 1767.97 694.7V714.7C1796.81 714.7 1819.12 722.175 1834.03 734.563C1848.73 746.775 1857.18 764.508 1857.18 787.321H1877.18ZM1764.14 809.859H1729.05V829.859H1764.14V809.859ZM1739.05 819.859V754.464H1719.05V819.859H1739.05ZM1729.05 764.464H1764.14V744.464H1729.05V764.464ZM1764.14 764.464C1775.84 764.464 1782.97 767.191 1787.05 770.7C1790.89 773.997 1793.38 779.145 1793.38 787.321H1813.38C1813.38 774.762 1809.33 763.481 1800.09 755.534C1791.09 747.798 1778.6 744.464 1764.14 744.464V764.464ZM1793.38 787.321C1793.38 795.291 1790.92 800.363 1787.08 803.64C1782.99 807.132 1775.84 809.859 1764.14 809.859V829.859C1778.6 829.859 1791.07 826.525 1800.06 818.852C1809.3 810.964 1813.38 799.767 1813.38 787.321H1793.38ZM1895.79 928H1885.79V938H1895.79V928ZM1955.45 928V938H1960.64L1963.63 933.748L1955.45 928ZM2047.32 797.21H2057.32V765.577L2039.14 791.462L2047.32 797.21ZM2047.32 928H2037.32V938H2047.32V928ZM2109.52 928V938H2119.52V928H2109.52ZM2109.52 704.7H2119.52V694.7H2109.52V704.7ZM2050.19 704.7V694.7H2045L2042.01 698.948L2050.19 704.7ZM1958 835.809H1948V867.416L1966.18 841.561L1958 835.809ZM1958 704.7H1968V694.7H1958V704.7ZM1895.79 704.7V694.7H1885.79V704.7H1895.79ZM1895.79 938H1955.45V918H1895.79V938ZM1963.63 933.748L2055.5 802.958L2039.14 791.462L1947.26 922.252L1963.63 933.748ZM2037.32 797.21V928H2057.32V797.21H2037.32ZM2047.32 938H2109.52V918H2047.32V938ZM2119.52 928V704.7H2099.52V928H2119.52ZM2109.52 694.7H2050.19V714.7H2109.52V694.7ZM2042.01 698.948L1949.82 830.057L1966.18 841.561L2058.37 710.452L2042.01 698.948ZM1968 835.809V704.7H1948V835.809H1968ZM1958 694.7H1895.79V714.7H1958V694.7ZM1885.79 704.7V928H1905.79V704.7H1885.79ZM2190.01 862.605L2198.23 868.299L2205.1 858.382L2194.08 853.471L2190.01 862.605ZM2144.71 928L2136.49 922.306L2125.62 938H2144.71V928ZM2211.07 928V938H2216.48L2219.44 933.47L2211.07 928ZM2247.75 871.856V861.856H2242.34L2239.38 866.386L2247.75 871.856ZM2282.2 871.856H2292.2V861.856H2282.2V871.856ZM2282.2 928H2272.2V938H2282.2V928ZM2344.41 928V938H2354.41V928H2344.41ZM2344.41 704.7H2354.41V694.7H2344.41V704.7ZM2282.2 754.464H2292.2V744.464H2282.2V754.464ZM2282.2 823.049V833.049H2292.2V823.049H2282.2ZM2243.92 694.7C2211.64 694.7 2184.16 703.193 2164.57 719.753C2144.79 736.48 2134.08 760.605 2134.08 789.554H2154.08C2154.08 765.868 2162.66 747.566 2177.49 735.025C2192.52 722.317 2214.96 714.7 2243.92 714.7V694.7ZM2134.08 789.554C2134.08 828.128 2152.86 856.995 2185.94 871.739L2194.08 853.471C2168.47 842.057 2154.08 820.522 2154.08 789.554H2134.08ZM2181.79 856.911L2136.49 922.306L2152.93 933.694L2198.23 868.299L2181.79 856.911ZM2144.71 938H2211.07V918H2144.71V938ZM2219.44 933.47L2256.12 877.326L2239.38 866.386L2202.69 922.53L2219.44 933.47ZM2247.75 881.856H2282.2V861.856H2247.75V881.856ZM2272.2 871.856V928H2292.2V871.856H2272.2ZM2282.2 938H2344.41V918H2282.2V938ZM2354.41 928V704.7H2334.41V928H2354.41ZM2344.41 694.7H2243.92V714.7H2344.41V694.7ZM2245.2 764.464H2282.2V744.464H2245.2V764.464ZM2272.2 754.464V823.049H2292.2V754.464H2272.2ZM2282.2 813.049H2244.56V833.049H2282.2V813.049ZM2244.56 813.049C2234.17 813.049 2227.82 810.422 2224.1 806.918C2220.48 803.505 2217.88 797.868 2217.88 788.597H2197.88C2197.88 801.656 2201.65 813.245 2210.39 821.476C2219.03 829.615 2231.02 833.049 2244.56 833.049V813.049ZM2217.88 788.597C2217.88 779.137 2220.49 773.68 2224.06 770.43C2227.8 767.025 2234.3 764.464 2245.2 764.464V744.464C2231.53 744.464 2219.38 747.645 2210.59 755.644C2201.64 763.798 2197.88 775.408 2197.88 788.597H2217.88ZM2572.28 704.7H2582.28V694.7H2572.28V704.7ZM2373.22 704.7V694.7H2363.22V704.7H2373.22ZM2373.22 754.783H2363.22V764.783H2373.22V754.783ZM2441.81 754.783H2451.81V744.783H2441.81V754.783ZM2441.81 928H2431.81V938H2441.81V928ZM2504.01 928V938H2514.01V928H2504.01ZM2504.01 754.783V744.783H2494.01V754.783H2504.01ZM2572.28 754.783V764.783H2582.28V754.783H2572.28ZM2572.28 694.7H2373.22V714.7H2572.28V694.7ZM2363.22 704.7V754.783H2383.22V704.7H2363.22ZM2373.22 764.783H2441.81V744.783H2373.22V764.783ZM2431.81 754.783V928H2451.81V754.783H2431.81ZM2441.81 938H2504.01V918H2441.81V938ZM2514.01 928V754.783H2494.01V928H2514.01ZM2504.01 764.783H2572.28V744.783H2504.01V764.783ZM2582.28 754.783V704.7H2562.28V754.783H2582.28ZM2601.39 928H2591.39V938H2601.39V928ZM2661.05 928V938H2666.24L2669.23 933.748L2661.05 928ZM2752.92 797.21H2762.92V765.577L2744.74 791.462L2752.92 797.21ZM2752.92 928H2742.92V938H2752.92V928ZM2815.12 928V938H2825.12V928H2815.12ZM2815.12 704.7H2825.12V694.7H2815.12V704.7ZM2755.79 704.7V694.7H2750.6L2747.61 698.948L2755.79 704.7ZM2663.6 835.809H2653.6V867.416L2671.78 841.561L2663.6 835.809ZM2663.6 704.7H2673.6V694.7H2663.6V704.7ZM2601.39 704.7V694.7H2591.39V704.7H2601.39ZM2601.39 938H2661.05V918H2601.39V938ZM2669.23 933.748L2761.1 802.958L2744.74 791.462L2652.86 922.252L2669.23 933.748ZM2742.92 797.21V928H2762.92V797.21H2742.92ZM2752.92 938H2815.12V918H2752.92V938ZM2825.12 928V704.7H2805.12V928H2825.12ZM2815.12 694.7H2755.79V714.7H2815.12V694.7ZM2747.61 698.948L2655.42 830.057L2671.78 841.561L2763.97 710.452L2747.61 698.948ZM2673.6 835.809V704.7H2653.6V835.809H2673.6ZM2663.6 694.7H2601.39V714.7H2663.6V694.7ZM2591.39 704.7V928H2611.39V704.7H2591.39ZM2863.07 928H2853.07V938H2863.07V928ZM2922.73 928V938H2927.92L2930.91 933.748L2922.73 928ZM3014.6 797.21H3024.6V765.577L3006.42 791.462L3014.6 797.21ZM3014.6 928H3004.6V938H3014.6V928ZM3076.8 928V938H3086.8V928H3076.8ZM3076.8 704.7H3086.8V694.7H3076.8V704.7ZM3017.47 704.7V694.7H3012.28L3009.29 698.948L3017.47 704.7ZM2925.28 835.809H2915.28V867.416L2933.46 841.561L2925.28 835.809ZM2925.28 704.7H2935.28V694.7H2925.28V704.7ZM2863.07 704.7V694.7H2853.07V704.7H2863.07ZM2863.07 938H2922.73V918H2863.07V938ZM2930.91 933.748L3022.78 802.958L3006.42 791.462L2914.54 922.252L2930.91 933.748ZM3004.6 797.21V928H3024.6V797.21H3004.6ZM3014.6 938H3076.8V918H3014.6V938ZM3086.8 928V704.7H3066.8V928H3086.8ZM3076.8 694.7H3017.47V714.7H3076.8V694.7ZM3009.29 698.948L2917.1 830.057L2933.46 841.561L3025.65 710.452L3009.29 698.948ZM2935.28 835.809V704.7H2915.28V835.809H2935.28ZM2925.28 694.7H2863.07V714.7H2925.28V694.7ZM2853.07 704.7V928H2873.07V704.7H2853.07Z" fill="#5F5E5D"/>
</svg>
