<svg width="4324" height="1528" viewBox="0 0 4324 1528" fill="none" xmlns="http://www.w3.org/2000/svg">
<g clip-path="url(#clip0)">
<path d="M4324 0H0V1528H4324V0Z" fill="#DEDEDE"/>
<path d="M2586.62 571L1457 1528H3773L2586.62 571Z" fill="#AAAAAA"/>
<path d="M2593.05 571L2367 1528H3773L2593.05 571Z" fill="#C8C8C8"/>
<path d="M-162 1528L865.886 804L1804 1528H-162Z" fill="#828181"/>
<path d="M663 1528L862.555 804L2230 1528H663Z" fill="#A5A5A5"/>
<path d="M3378.81 659L4194 1528H2615L3378.81 659Z" fill="#8D8D8D"/>
<path d="M3378.39 659L4301 1528H3270L3378.39 659Z" fill="#BDBDBD"/>
<path d="M1732.3 974.044L2394.41 1528H991.817L1732.3 974.044Z" fill="#B4B4B4"/>
<path d="M1586.37 1528L1732.3 974.044L2394.41 1528H1586.37Z" fill="#979797"/>
<path d="M4621 1528L3786.1 858L2962 1528H4621Z" fill="#7E7E7E"/>
<path d="M5701 1528L3785.2 858L3562 1528H5701Z" fill="#ADAEAD"/>
<path d="M3270.03 1528L2624.13 952.427L1959.31 1528H3270.03Z" fill="#868686"/>
<path d="M2548.46 1528H3270.02L2624.13 952.427L2548.46 1528Z" fill="#A9A9A9"/>
</g>
<defs>
<clipPath id="clip0">
<rect width="4324" height="1528" fill="white"/>
</clipPath>
</defs>
</svg>
