<svg width="4300" height="2244" viewBox="0 0 4300 2244" fill="none" xmlns="http://www.w3.org/2000/svg">
<g clip-path="url(#clip0)">
<path d="M4316 -102H-8V2159H4316V-102Z" fill="#DEDEDE"/>
<path d="M2578.62 1287L1449 2244H3765L2578.62 1287Z" fill="#AAAAAA"/>
<path d="M2585.05 1287L2359 2244H3765L2585.05 1287Z" fill="#C8C8C8"/>
<path d="M-170 2244L857.886 1520L1796 2244H-170Z" fill="#828181"/>
<path d="M655 2244L854.555 1520L2222 2244H655Z" fill="#A5A5A5"/>
<path d="M3370.81 1375L4186 2244H2607L3370.81 1375Z" fill="#8D8D8D"/>
<path d="M3370.39 1375L4293 2244H3262L3370.39 1375Z" fill="#BDBDBD"/>
<path d="M1724.3 1690.04L2386.41 2244H983.817L1724.3 1690.04Z" fill="#B4B4B4"/>
<path d="M1578.37 2244L1724.3 1690.04L2386.41 2244H1578.37Z" fill="#979797"/>
<path d="M4613 2244L3778.1 1574L2954 2244H4613Z" fill="#7E7E7E"/>
<path d="M5693 2244L3777.2 1574L3554 2244H5693Z" fill="#ADAEAD"/>
<path d="M3262.03 2244L2616.13 1668.43L1951.31 2244H3262.03Z" fill="#868686"/>
<path d="M2540.46 2244H3262.02L2616.13 1668.43L2540.46 2244Z" fill="#A9A9A9"/>
</g>
<defs>
<clipPath id="clip0">
<rect width="4324" height="2244" fill="white" transform="translate(-8)"/>
</clipPath>
</defs>
</svg>
